<?xml version="1.0" encoding="utf-8"?>
<!-- Generator: Adobe Illustrator 15.0.0, SVG Export Plug-In . SVG Version: 6.00 Build 0)  -->
<!DOCTYPE svg PUBLIC "-//W3C//DTD SVG 1.1//EN" "http://www.w3.org/Graphics/SVG/1.1/DTD/svg11.dtd">
<svg version="1.1" id="Layer_1" xmlns="http://www.w3.org/2000/svg" xmlns:xlink="http://www.w3.org/1999/xlink" x="0px" y="0px"
	 width="816.643px" height="816.643px" viewBox="0 0 816.643 816.643" enable-background="new 0 0 816.643 816.643"
	 xml:space="preserve">
<g id="Invernaderos_2_">
	<path fill="#7AC943" d="M807.896,409.863c0,221.363-179.666,400.842-401.259,400.842c-221.592,0-401.258-179.479-401.258-400.842
		c0-221.361,179.666-400.817,401.258-400.817C628.229,9.046,807.896,188.502,807.896,409.863z"/>
	<g>
		<path fill="none" stroke="#FFFFFF" stroke-width="20" stroke-miterlimit="10" d="M595.821,320.821V602.44
			c0,29.973-10.068,56.381-39.287,56.381H269.899c-29.194,0-60.078-26.408-60.078-56.381V320.821"/>
		<path fill="none" stroke="#FFFFFF" stroke-width="20" stroke-miterlimit="10" d="M164.381,338.292
			c-3.252-3.225-3.252-8.422,0-11.671L404.084,87.166c3.253-3.223,8.457-3.223,11.683,0l239.729,239.456
			c3.251,3.249,3.251,8.446,0,11.671"/>
		<g>
			<g>
				<g>
					<path fill="#FFFFFF" d="M415.229,655.792c10.862-40.783,17.976-82.512,15.615-124.843
						c-2.294-41.125-14.873-80.601-31.456-118.046c-3.383-7.639-15.487-5.924-21.837-4.223c-4.312,1.155-20.078,7.174-16.8,14.576
						c16.219,36.624,28.366,74.926,31.264,115.059c2.985,41.332-4.788,82.682-15.383,122.463
						C372.981,674.487,411.804,668.651,415.229,655.792L415.229,655.792z"/>
				</g>
			</g>
			<g>
				<g>
					<path fill="#FFFFFF" d="M420.854,484.151c4.811-12.559,10.423-24.773,17.37-36.302c0.27-0.447,2.784-4.369,0.674-1.12
						c0.736-1.135,1.502-2.249,2.269-3.363c1.733-2.521,3.577-4.965,5.469-7.369c1.818-2.312,3.745-4.538,5.717-6.722
						c0.824-0.913,1.676-1.802,2.527-2.69c0.724-0.754,4.802-4.665,0.978-1.062c3.713-3.497,7.705-6.686,11.852-9.65
						c1.223-0.874,7.925-5.128,2.519-1.821c2.293-1.402,4.656-2.689,7.041-3.929c2.052-1.067,4.149-2.044,6.259-2.993
						c1.63-0.733,10.254-4.042,3.666-1.624c5.263-1.932,10.66-3.483,16.099-4.836c-7.654-2.808-15.309-5.616-22.963-8.424
						c1.254,3.971,2.313,7.976,3.133,12.059c0.416,2.075,0.714,4.171,0.975,6.269c0.095,0.807,0.176,1.615,0.244,2.424
						c-0.329-3.549-0.047,0.327-0.03,0.905c0.093,3.313-0.138,6.628-0.557,9.912c-0.22,1.72-0.562,3.422-0.935,5.114
						c-0.948,4.3,0.801-2.095-0.589,2.006c-0.932,2.752-2.159,5.395-3.521,7.956c-0.303,0.558-0.615,1.109-0.938,1.656
						c-1.741,3.015,2.19-3.252,0.253-0.371c-0.875,1.303-1.836,2.545-2.813,3.771c-0.781,0.979-1.616,1.915-2.456,2.844
						c-0.934,1.031-5.128,4.971-0.657,0.814c-2.315,2.152-4.817,4.097-7.386,5.935c-1.036,0.742-2.103,1.441-3.171,2.135
						c-1.675,1.056-1.074,0.691,1.801-1.094c-0.823,0.497-1.662,0.97-2.5,1.441c-2.806,1.58-5.71,2.981-8.647,4.297
						c-1.177,0.527-2.369,1.021-3.562,1.51c-0.597,0.241-1.196,0.479-1.797,0.711c-3.587,1.403,5.01-1.818,1.389-0.523
						c-2.997,1.071-6.043,2.005-9.104,2.872c-2.69,0.762-5.408,1.426-8.136,2.042c-1.475,0.334-2.957,0.635-4.44,0.928
						c-1.707,0.337-7.505,1.286,0.057,0.039c-5.257,0.867-10.562,1.454-15.879,1.793c2.342,8.743,4.685,17.485,7.027,26.229
						c36.107-13.875,62.094-44.081,79.541-77.666c2.538-4.886,0.672-10.655-3.679-13.729c-5.519-3.898-12.222-3.488-18.486-2.266
						c-26.984,5.264-49.167,24.584-65.275,45.954c-3.244,4.304-4.934,9.791-1.422,14.564c4.942,6.717,14.083,6.325,21.304,4.993
						c21.306-3.932,42.069-10.318,63.365-14.295c7.897-1.476,18.097-9.737,15.674-18.777c-2.649-9.888-15.075-9.896-22.963-8.424
						c-21.296,3.978-42.06,10.364-63.365,14.295c6.628,6.52,13.255,13.038,19.882,19.558c3.454-4.583,7.101-8.982,11.017-13.177
						c0.757-0.801,1.524-1.59,2.302-2.37c3.766-3.825-2.556,2.272,1.357-1.277c1.936-1.756,3.975-3.395,6.041-4.992
						c1.999-1.546,4.098-2.954,6.224-4.316c-4.235,2.715,2.378-1.098,3.448-1.615c0.864-0.407,1.736-0.794,2.618-1.163
						c4.539-1.957-4.355,1.441,0.306-0.08c2.216-0.723,4.493-1.23,6.777-1.676c-7.389-5.332-14.776-10.664-22.165-15.995
						c-2.07,3.985-4.241,7.908-6.534,11.771c-0.56,0.935-1.127,1.863-1.702,2.788c0.845-1.283,0.737-1.115-0.323,0.502
						c-1.151,1.761-2.357,3.484-3.571,5.202c-4.613,6.521-9.787,12.634-15.395,18.319c-1.444,1.413-1.359,1.353,0.256-0.183
						c-0.689,0.646-1.386,1.285-2.09,1.916c-1.386,1.257-2.822,2.456-4.265,3.646c-2.834,2.339-5.816,4.491-8.861,6.545
						c-0.755,0.503-1.517,0.996-2.284,1.48c2.327-1.413,2.583-1.581,0.769-0.504c-1.552,0.912-3.142,1.755-4.736,2.587
						c-3.579,1.868-7.295,3.461-11.062,4.908c-6.238,2.396-12.559,9.863-10.669,16.915c2.006,7.486,10.966,9.743,17.697,9.313
						c29.113-1.855,58.938-10.049,83.029-26.869c12.615-8.808,23.525-21.493,28.766-36.076c6.296-17.523,4.896-36.291-0.646-53.832
						c-2.986-9.455-14.835-10.446-22.963-8.424c-24.159,6.012-47.519,16.795-65.939,33.792
						c-21.421,19.766-35.892,45.06-46.249,72.102C375.733,500.462,414.537,500.646,420.854,484.151L420.854,484.151z"/>
				</g>
			</g>
			<g>
				<g>
					<path fill="#FFFFFF" d="M410.908,455.184c5.57-31.253-6.216-60.372-26.798-83.654c-17.862-20.207-42.385-36.751-67.925-45.509
						c-7.496-2.57-15.723-1.345-22.944,1.636c-4.637,1.914-13.016,6.304-11.816,12.633c11.5,60.652,35.09,138.298,105.407,150.405
						c7.964,1.371,16.897-0.773,23.794-4.841c3.623-2.136,10.881-8.047,6.106-12.724c-34.938-34.219-63.58-75.812-85.99-119.152
						c-10.414,5.104-20.829,10.209-31.243,15.314c1.297,0.206,2.564,0.474,3.836,0.803c-3.834-0.993,1.464,0.722,2.359,1.119
						c4.19,1.858,5.35,2.783,8.199,4.964c6.76,5.175,12.369,11.809,16.892,18.985c8.952,14.201,10.68,32.001,3.235,47.066
						c-1.388,2.809,1.699,5.584,3.838,6.536c3.878,1.727,8.568,1.662,12.674,1.116c8.511-1.131,18.059-4.69,22.049-12.766
						c17.191-34.786-12.195-82.23-49.233-88.1c-6.533-1.035-13.354,0.174-19.427,2.681c-3.211,1.326-14.658,7.137-11.816,12.633
						c23.197,44.862,52.49,88.212,88.674,123.653c9.967-5.854,19.934-11.71,29.9-17.564c-3.322-0.572-6.592-1.304-9.838-2.214
						c3.098,0.868-1.776-0.678-2.309-0.87c-1.895-0.687-3.747-1.484-5.585-2.309c-2.91-1.306-5.71-2.844-8.447-4.477
						c-0.68-0.411-1.353-0.833-2.021-1.264c0.88,0.566,0.737,0.454-0.429-0.335c-1.635-1.138-3.208-2.364-4.762-3.608
						c-10.668-8.54-19.477-19.674-26.289-31.466c-16.534-28.621-24.833-61.729-30.94-93.94c-11.587,4.756-23.174,9.513-34.76,14.27
						c24.182,8.292,43.705,21.629,61.131,40.277c19.081,20.419,30.964,47.474,25.914,75.812
						C369.806,474.55,408.661,467.796,410.908,455.184L410.908,455.184z"/>
				</g>
			</g>
		</g>
		<g>
			<path fill="#7AC943" d="M393.179,473.363c-7.906-67.773-64.992-117.003-96.562-131.249"/>
		</g>
		<g>
			<path fill="#7AC943" d="M416.242,486.584c48.382-12.82,82.905-74.271,92.735-107.358"/>
		</g>
		<path fill="#FFFFFF" d="M219.821,336.188c0,5.321-3.001,9.634-6.704,9.634h-53.593c-3.702,0-6.704-4.313-6.704-9.634v-5.732
			c0-5.321,3.001-9.634,6.704-9.634h53.593c3.702,0,6.704,4.313,6.704,9.634V336.188z"/>
		<path fill="#FFFFFF" d="M666.821,336.188c0,5.321-3.283,9.634-7.334,9.634h-58.332c-4.051,0-7.334-4.313-7.334-9.634v-5.732
			c0-5.321,3.283-9.634,7.334-9.634h58.332c4.051,0,7.334,4.313,7.334,9.634V336.188z"/>
	</g>
</g>
</svg>
